<svg width="409" height="255" viewBox="0 0 409 255" fill="none" xmlns="http://www.w3.org/2000/svg">
<path d="M203.869 1.05291C206.38 3.92973 214.74 12.4823 222.971 21.2401C230.524 29.2751 238.811 35.9185 252.909 49.0165C264.21 59.5158 283.653 73.7454 295.078 83.234C309.515 95.2242 314.461 100.458 329 112.351C341.041 122.2 361.957 140.369 376.584 153.689C399.436 174.5 407.483 184.483 407.684 185.922C407.788 186.662 404.518 185.839 379.33 173.111C354.141 160.383 306.27 135.371 279.7 121.199C237.897 98.902 225.796 86.1159 223.891 85.7103C221.455 85.1915 222.665 91.523 219.937 114.81C217.445 136.092 211.756 176.496 208.588 198.393C204.468 226.87 202.334 234.764 196.177 251.937C195.055 255.066 192.738 254.095 190.921 252.055C186.486 247.075 181.704 233.71 174.772 212.058C166.32 185.659 163.948 168.162 163.132 163.093C160.624 147.509 158.699 134.037 157.424 122.767C155.2 103.102 151.916 83.7363 150.362 79.3725C150.096 78.6252 148.012 80.862 137.631 89.1782C127.25 97.4944 108.012 112.638 86.726 131.881C65.4403 151.124 42.6907 174.007 30.277 186.261C14.2431 202.089 8.16728 205.338 3.44149 207.169C-4.06872 210.079 6.73417 183.314 27.3948 154.17C42.4298 132.962 68.7153 99.8999 82.4259 82.0665C96.1366 64.233 96.9901 62.9317 96.6871 62.0301C96.3841 61.1286 94.8987 60.6663 93.4109 60.3064C91.9232 59.9465 90.4781 59.703 88.5952 59.4521" stroke="#7B3E0A" stroke-opacity="0.5" stroke-width="2.10278" stroke-linecap="round"/>
</svg>
