<svg width="350" height="442" viewBox="0 0 350 442" fill="none" xmlns="http://www.w3.org/2000/svg">
<path d="M1.05341 261.793C1.05341 261.694 1.05341 261.596 2.54848 228.23C4.04355 194.864 7.03369 128.233 9.58237 88.6029C12.131 48.9727 14.1477 38.3618 15.7675 29.3502C18.6592 13.2633 20.5829 3.3665 22.6333 1.15364C23.4521 0.269869 25.4137 4.89457 31.5156 29.7746C37.6176 54.6546 48.2075 100.934 53.9804 125.537C61.579 157.922 65.7501 170.741 68.29 175.667C69.5603 178.131 79.2418 166.081 102.724 141.807C119.069 124.911 147.916 101.598 170.678 83.6729C193.44 65.7478 210.14 54.6531 221.034 47.7512C243.671 33.4097 252.791 31.5325 254.374 31.566C254.912 31.5773 253.703 33.2779 237.563 54.0985C221.423 74.9191 190.079 115.243 171.688 139.639C141.278 179.977 139.998 186.928 139.571 189.51C139.367 190.748 141.035 191.81 152.131 192.575C163.227 193.34 184.173 193.768 215.671 200.685C247.17 207.602 288.588 220.996 310.682 228.099C332.777 235.202 334.294 235.608 334.584 236.705C334.874 237.801 333.892 239.575 310.164 247.737C286.437 255.899 239.994 270.395 214.633 278.423C186.324 287.384 182.311 289.556 180.903 291.625C179.23 294.082 184.779 300.389 213.362 326.748C238.178 349.632 287.254 388.807 313.794 410.529C343.459 434.807 348.641 437.723 348.749 438.957C349.191 443.994 335.204 439.383 294.272 426.09C256.948 413.047 186.019 387.219 145.423 371.89C104.827 356.561 96.7131 352.513 87.5713 346.661" stroke="#7B3E0A" stroke-opacity="0.5" stroke-width="2.10278" stroke-linecap="round"/>
</svg>
