<svg width="284" height="241" viewBox="0 0 284 241" fill="none" xmlns="http://www.w3.org/2000/svg">
<path d="M282.945 79.2418C282.254 79.2418 278.913 79.2418 269.341 78.3357C262.713 77.7083 252.653 75.6174 212.685 65.1497C172.718 54.6821 103.19 35.6139 65.5232 25.1197C27.8569 14.6255 24.1594 13.2832 20.2721 11.6623C6.69988 6.00307 2.81809 2.66648 1.19632 1.30096C-0.0988223 0.210462 6.9222 1.91364 46.3754 23.7286C83.5821 44.3015 155.433 84.5252 194.056 106.316C232.678 128.107 235.83 130.337 238.026 131.993C241.451 134.577 243.524 136.493 244.343 137.917C244.678 138.502 242.846 139.033 233.715 144.592C224.584 150.15 207.697 160.777 183.032 174.512C158.367 188.247 126.436 204.768 107.372 215.046C75.4677 232.248 72.4406 236.515 71.1904 238.022C67.7648 242.153 84.8422 238.158 106.5 235.696C121.252 234.019 137.994 231.866 160.398 228.801C179.215 226.226 192.653 222.365 202.284 220.489C216.967 217.629 241.47 220.22 245.973 220.943C248.241 221.292 250.517 221.639 252.76 221.98C253.892 222.15 255.013 222.314 256.444 222.484" stroke="#7B3E0A" stroke-opacity="0.5" stroke-width="2.10278" stroke-linecap="round"/>
</svg>
