<svg width="284" height="241" viewBox="0 0 284 241" fill="none" xmlns="http://www.w3.org/2000/svg">
<path d="M282.945 79.2418C282.254 79.2418 278.913 79.2418 269.341 78.3357C262.713 77.7083 252.653 75.6174 212.685 65.1497C172.718 54.6821 103.189 35.6139 65.5231 25.1197C27.8568 14.6255 24.1593 13.2832 20.272 11.6623C6.69976 6.00307 2.81797 2.66648 1.1962 1.30096C-0.0989448 0.210462 6.92208 1.91364 46.3752 23.7286C83.582 44.3015 155.433 84.5252 194.055 106.316C232.678 128.107 235.83 130.337 238.026 131.993C241.451 134.577 243.524 136.493 244.342 137.917C244.678 138.502 242.845 139.033 233.715 144.592C224.584 150.15 207.697 160.777 183.032 174.512C158.367 188.247 126.436 204.768 107.372 215.046C75.4676 232.248 72.4404 236.515 71.1903 238.022C67.7647 242.153 84.8421 238.158 106.5 235.696C121.251 234.019 137.994 231.866 160.398 228.801C179.215 226.226 192.653 222.365 202.284 220.489C216.967 217.629 241.47 220.22 245.973 220.943C248.241 221.292 250.517 221.639 252.76 221.98C253.892 222.15 255.013 222.314 256.443 222.484" stroke="#7B3E0A" stroke-width="2.10278" stroke-linecap="round"/>
</svg>
