<svg width="409" height="250" viewBox="0 0 409 250" fill="none" xmlns="http://www.w3.org/2000/svg">
<path d="M205.718 1.05358C208.142 3.60162 216.215 11.1768 224.163 18.9337C231.455 26.0504 239.457 31.9346 253.07 43.5356C263.982 52.835 283.833 68.2803 295.266 77.7749C309.712 89.7728 314.662 95.0101 329.21 106.91C341.258 116.765 362.187 134.946 376.824 148.275C399.69 169.099 407.742 179.088 407.944 180.529C408.048 181.269 404.776 180.445 379.571 167.709C354.367 154.973 306.465 129.945 279.879 115.764C238.048 93.453 225.94 80.6587 224.034 80.2529C221.596 79.7336 222.807 86.0692 220.078 109.371C217.584 130.667 211.891 171.097 208.721 193.007C204.598 221.502 202.463 229.401 196.302 246.585C195.179 249.716 192.861 248.745 191.043 246.703C186.605 241.721 181.82 228.346 174.883 206.681C166.426 180.265 164.053 162.757 163.236 157.685C160.726 142.091 158.8 128.61 157.525 117.333C155.299 97.6552 152.013 78.2775 150.458 73.911C150.191 73.1632 148.106 75.4015 137.719 83.7229C127.331 92.0444 108.081 107.198 86.7813 126.453C65.4821 145.709 42.718 168.606 30.2964 180.868C14.2523 196.705 8.17261 199.957 3.44381 201.789C-4.07119 204.701 6.73859 177.919 27.4124 148.757C42.457 127.535 68.7592 94.4514 82.4786 76.6067C96.198 58.7619 97.052 57.4597 96.7488 56.5576C96.4456 55.6554 94.9593 55.1929 93.4706 54.8327C91.9819 54.4726 90.5359 54.229 88.6517 53.9779" stroke="#7B3E0A" stroke-width="2.10278" stroke-linecap="round"/>
</svg>
