<svg width="1477" height="70" viewBox="0 0 1477 70" fill="none" xmlns="http://www.w3.org/2000/svg">
<path fill-rule="evenodd" clip-rule="evenodd" d="M175.54 2.47164C310.197 2.47164 300.393 12.6672 300.393 17.9744C300.393 18.9555 302.676 28.4259 213.058 28.4259H159.664V66.7702H0V2.47164H175.54ZM159.664 24.8182H169.01C180.621 24.8182 202.514 24.8182 202.514 19.54C202.514 12.6672 171.163 12.9466 165.927 12.6672H159.664V24.8182Z" fill="#382617"/>
<path d="M1377.8 43.4322H1477V69.4318H1306.58V3.59533H1377.8V43.4322Z" fill="#382617"/>
<path d="M1215.25 56.0937H1300.27V69.4318H1066.72V3.59533H1215.25V56.0937Z" fill="#382617"/>
<path d="M806.881 68.7576H601.742V5.61749H806.881V68.7576Z" fill="#382617"/>
<path d="M806.881 3.59517H601.742V0H806.881V3.59517Z" fill="#382617"/>
<path d="M931.483 3.98723C997.934 10.3356 992.991 20.2109 992.991 26.8414H925.991C928.737 24.3021 925.442 21.9038 923.245 21.1984C916.947 19.1762 902.926 18.518 894.138 19.5055C877.114 23.5967 880.409 29.9838 880.409 37.9379C880.409 45.8919 880.409 49.6957 884.802 52.3761C889.445 54.0866 893.729 54.153 895.786 54.3512C896.884 54.457 912.261 54.9155 917.753 54.069C928.621 52.3939 927.089 47.887 927.089 47.887H897.85V35.1748H995.188V37.0586C995.188 49.199 995.188 58.3013 964.434 65.0729C950.704 70.5749 918.852 69.3052 900.179 69.3052C883.155 69.3052 858.807 70.2364 832.081 62.5336C805.354 54.8307 811.762 47.0059 811.762 35.8703C811.762 24.3159 806.676 17.192 833.729 9.48911C871.073 2.15318 911.163 3.56399 931.483 3.98723Z" fill="#382617"/>
<path d="M1060.41 69.4317H999.396V5.61749H1060.41V69.4317Z" fill="#382617"/>
<path d="M1059.36 3.59517H999.396V0H1059.36V3.59517Z" fill="#382617"/>
<path fill-rule="evenodd" clip-rule="evenodd" d="M540.064 3.50739C600.578 3.50739 596.172 3.84835 596.172 19.7693C596.172 29.385 605.865 34.9021 556.924 34.9021H515.711V68.3175H475.444V3.50739H540.064ZM515.711 26.9482H537.129C558.279 25.3366 554.754 17.4254 549.196 16.3068C545.06 15.2278 538.097 14.4953 535.744 14.2022H515.711V26.9482Z" fill="#382617"/>
<path d="M576.785 36.9105C561.275 35.1525 528.611 35.2013 515.099 35.4455V43.5032H543.298C552.992 43.5032 552.698 45.4566 552.992 46.2868V68.116H595.291V43.2102C595.291 43.0637 596.172 39.1081 576.785 36.9105Z" fill="#382617"/>
<path fill-rule="evenodd" clip-rule="evenodd" d="M315.622 9.99045C305.019 13.823 304.675 18.162 304.675 22.4995C304.675 57.1038 317.264 40.3553 380.28 40.3553H446.67V68.2537H470.518C470.518 68.2537 470.518 20.3952 470.518 14.316C470.518 8.23687 457.929 1.92391 393.891 2.62534C351.255 3.09235 336.968 2.27461 315.622 9.99045ZM445.573 27.5264H386.228C386.228 23.4347 386.228 22.7333 386.228 19.4599C386.228 15.0174 408.995 14.316 416.332 14.316C423.668 14.316 445.573 14.7836 445.573 19.4599C445.573 22.7246 445.573 24.2617 445.573 27.5264Z" fill="#382617"/>
<path d="M306.317 42.7057V34.5409L390.607 34.5409V50.404C390.607 54.3698 390.484 58.0905 390.029 58.9188V67.9762H306.317V52.8535V42.7057Z" fill="#382617"/>
</svg>
